<svg xmlns="http://www.w3.org/2000/svg" version="1.1" xmlns:xlink="http://www.w3.org/1999/xlink" width="1000" height="1000"><style>
    #light-icon {
      display: inline;
    }
    #dark-icon {
      display: none;
    }

    @media (prefers-color-scheme: dark) {
      #light-icon {
        display: none;
      }
      #dark-icon {
        display: inline;
      }
    }
  </style><g id="light-icon"><svg xmlns="http://www.w3.org/2000/svg" version="1.1" xmlns:xlink="http://www.w3.org/1999/xlink" width="1000" height="1000"><g><g transform="matrix(0.9883838214615093,0,0,0.9883838214615093,0.11114376072339383,0)"><svg xmlns="http://www.w3.org/2000/svg" version="1.1" xmlns:xlink="http://www.w3.org/1999/xlink" width="1011.5278" height="1011.7527"><svg width="1011.5278" height="1011.7527" fill="#000000" viewBox="0 0 8092.2222 8094.0215" version="1.1" id="svg1" sodipodi:docname="brand.svg" inkscape:export-filename="brand.png" inkscape:export-xdpi="96" inkscape:export-ydpi="96" inkscape:version="1.4.2 (ebf0e940d0, 2025-05-08)" xml:space="preserve" xmlns:inkscape="http://www.inkscape.org/namespaces/inkscape" xmlns:sodipodi="http://sodipodi.sourceforge.net/DTD/sodipodi-0.dtd" xmlns="http://www.w3.org/2000/svg" xmlns:svg="http://www.w3.org/2000/svg"><defs id="defs1"></defs><sodipodi:namedview id="namedview1" pagecolor="#ffffff" bordercolor="#000000" borderopacity="0.25" inkscape:showpageshadow="2" inkscape:pageopacity="0.0" inkscape:pagecheckerboard="0" inkscape:deskcolor="#d1d1d1" showgrid="false" showguides="false" inkscape:zoom="0.4005097" inkscape:cx="-747.79712" inkscape:cy="1561.7599" inkscape:window-width="1947" inkscape:window-height="1190" inkscape:window-x="26" inkscape:window-y="23" inkscape:window-maximized="0" inkscape:current-layer="svg1"><inkscape:grid id="grid1" units="px" originx="-3603.0032" originy="-22423.203" spacingx="8" spacingy="8" empcolor="#0099e5" empopacity="0.30196078" color="#0099e5" opacity="0.14901961" empspacing="5" enabled="true" visible="false"></inkscape:grid><inkscape:page x="0" y="0" width="8092.2222" height="8094.0215" id="page2" margin="0" bleed="0"></inkscape:page></sodipodi:namedview><g style="fill:#000000" id="g639" transform="matrix(36.125909,0,0,36.125909,-578.00616,-576.19608)"><path d="M 198.1,62.59 A 76,76 0 0 0 57.9,62.59 71.71,71.71 0 0 0 16,127.8 C 15.9,166 48,199 86.14,200 A 72.09,72.09 0 0 0 120,192.47 V 232 a 8,8 0 0 0 16,0 v -39.53 a 72.17,72.17 0 0 0 32,7.53 h 1.82 C 208,199 240.11,166 240,127.8 A 71.71,71.71 0 0 0 198.1,62.59 Z M 169.45,184 A 56.08,56.08 0 0 1 136,174 v -41 l 43.58,-21.78 A 8.0051234,8.0051234 0 1 0 172.42,96.9 L 136,115.06 V 88 a 8,8 0 0 0 -16,0 v 51.06 L 83.58,120.84 a 8.0051234,8.0051234 0 1 0 -7.16,14.32 L 120,156.94 v 17 a 56,56 0 0 1 -33.45,10 C 56.9,183.23 31.92,157.52 32,127.84 A 55.77,55.77 0 0 1 67.11,76 a 8,8 0 0 0 4.53,-4.67 60,60 0 0 1 112.72,0 8,8 0 0 0 4.53,4.67 55.79,55.79 0 0 1 35.11,51.84 c 0.08,29.68 -24.9,55.39 -54.55,56.16 z" id="path1-8"></path></g></svg></svg></g></g></svg></g><g id="dark-icon"><svg xmlns="http://www.w3.org/2000/svg" version="1.1" xmlns:xlink="http://www.w3.org/1999/xlink" width="1000" height="1000"><g><g transform="matrix(0.9883838214615093,0,0,0.9883838214615093,0.11114376072339383,0)"><svg xmlns="http://www.w3.org/2000/svg" version="1.1" xmlns:xlink="http://www.w3.org/1999/xlink" width="1011.5278" height="1011.7527"><svg width="1011.5278" height="1011.7527" fill="#000000" viewBox="0 0 8092.2222 8094.0215" version="1.1" id="svg1" sodipodi:docname="brand.svg" inkscape:export-filename="brand.png" inkscape:export-xdpi="96" inkscape:export-ydpi="96" inkscape:version="1.4.2 (ebf0e940d0, 2025-05-08)" xml:space="preserve" xmlns:inkscape="http://www.inkscape.org/namespaces/inkscape" xmlns:sodipodi="http://sodipodi.sourceforge.net/DTD/sodipodi-0.dtd" xmlns="http://www.w3.org/2000/svg" xmlns:svg="http://www.w3.org/2000/svg"><defs id="defs1"></defs><sodipodi:namedview id="namedview1" pagecolor="#ffffff" bordercolor="#000000" borderopacity="0.25" inkscape:showpageshadow="2" inkscape:pageopacity="0.0" inkscape:pagecheckerboard="0" inkscape:deskcolor="#d1d1d1" showgrid="false" showguides="false" inkscape:zoom="0.4005097" inkscape:cx="-747.79712" inkscape:cy="1561.7599" inkscape:window-width="1947" inkscape:window-height="1190" inkscape:window-x="26" inkscape:window-y="23" inkscape:window-maximized="0" inkscape:current-layer="svg1"><inkscape:grid id="grid1" units="px" originx="-3603.0032" originy="-22423.203" spacingx="8" spacingy="8" empcolor="#0099e5" empopacity="0.30196078" color="#0099e5" opacity="0.14901961" empspacing="5" enabled="true" visible="false"></inkscape:grid><inkscape:page x="0" y="0" width="8092.2222" height="8094.0215" id="page2" margin="0" bleed="0"></inkscape:page></sodipodi:namedview><g style="fill:#ffffff" id="g639" transform="matrix(36.125909,0,0,36.125909,-578.00616,-576.19608)" inkscape:export-filename="favicon_black.svg" inkscape:export-xdpi="96" inkscape:export-ydpi="96"><path d="M 198.1,62.59 A 76,76 0 0 0 57.9,62.59 71.71,71.71 0 0 0 16,127.8 C 15.9,166 48,199 86.14,200 A 72.09,72.09 0 0 0 120,192.47 V 232 a 8,8 0 0 0 16,0 v -39.53 a 72.17,72.17 0 0 0 32,7.53 h 1.82 C 208,199 240.11,166 240,127.8 A 71.71,71.71 0 0 0 198.1,62.59 Z M 169.45,184 A 56.08,56.08 0 0 1 136,174 v -41 l 43.58,-21.78 A 8.0051234,8.0051234 0 1 0 172.42,96.9 L 136,115.06 V 88 a 8,8 0 0 0 -16,0 v 51.06 L 83.58,120.84 a 8.0051234,8.0051234 0 1 0 -7.16,14.32 L 120,156.94 v 17 a 56,56 0 0 1 -33.45,10 C 56.9,183.23 31.92,157.52 32,127.84 A 55.77,55.77 0 0 1 67.11,76 a 8,8 0 0 0 4.53,-4.67 60,60 0 0 1 112.72,0 8,8 0 0 0 4.53,4.67 55.79,55.79 0 0 1 35.11,51.84 c 0.08,29.68 -24.9,55.39 -54.55,56.16 z" id="path1-8" style="fill:#ffffff"></path></g></svg></svg></g></g></svg></g></svg>